<?xml version="1.0" encoding="UTF-8"?> <!-- Generator: Adobe Illustrator 15.0.0, SVG Export Plug-In . SVG Version: 6.00 Build 0) --> <svg xmlns="http://www.w3.org/2000/svg" xmlns:xlink="http://www.w3.org/1999/xlink" id="Layer_1" x="0px" y="0px" width="595.327px" height="321.458px" viewBox="123.257 95.238 595.327 321.458" xml:space="preserve"> <path id="surface1" fill="#878787" d="M494.378,95.245c-5.584-0.143-10.465,2-12.977,8.191c-4.286,10.357,6.369,20.501,10.19,25.799 c2.644,3.691,6.084,7.822,7.989,11.953c1.262,2.738,1.452,5.489,2.512,8.382c2.655,7.107,6.894,15.203,10.286,21.812 c1.715,3.333,3.62,6.833,5.811,9.81c1.346,1.81,3.631,2.644,4,5.441c-2.238,3.154-2.381,8.048-3.631,12.036 c-5.667,17.906-3.536,40.182,4.702,53.396c2.56,4.096,8.549,12.787,16.739,9.489c7.168-2.929,5.584-12.001,7.62-20.049 c0.476-1.763,0.19-3.119,1.119-4.322v0.369c2.143,4.369,4.333,8.751,6.513,13.072c4.881,7.811,13.488,15.954,20.739,21.478 c3.774,2.846,6.75,7.774,11.632,9.441v-0.357h-0.369c-0.929-1.5-2.417-2.107-3.631-3.262c-3.022-2.939-5.81-6.112-8.334-9.489 c-6.694-9.204-12.646-18.926-17.799-29.073c-2.561-4.881-4.799-10.274-6.93-15.239c-0.833-1.964-0.833-4.846-2.56-5.869 c-2.381,3.679-5.81,6.607-7.62,10.93c-2.893,6.881-3.31,15.298-4.381,24.001c-0.654,0.238-0.369,0.048-0.702,0.357 c-5.06-1.25-6.882-6.453-8.739-10.917c-4.738-11.311-5.667-29.526-1.44-42.503c1.071-3.405,5.953-14.002,4.001-17.121 c-0.929-3.119-4.096-4.881-5.811-7.262c-2.298-3.176-4.25-6.589-5.821-10.18c-3.905-8.834-7.572-19.061-11.716-27.99 c-1.952-4.286-5.25-8.572-8-12.382c-3.024-4.167-6.37-7.25-8.739-12.357c-0.798-1.774-1.952-4.655-0.702-6.513 c0.369-1.262,0.929-1.774,2.19-2.19c2.096-1.631,7.953,0.512,10.18,1.44c5.81,2.417,10.703,4.75,15.632,8 c2.369,1.584,4.738,4.608,7.619,5.489h3.263c5.155,1.166,10.882,0.321,15.62,1.81c8.465,2.56,16.049,6.56,22.883,10.882 c21.149,13.427,38.343,32.243,49.812,54.516c1.905,3.619,2.738,7.107,4.405,10.929c3.31,7.715,7.548,15.716,10.894,23.252 c3.298,7.572,6.548,15.156,11.251,21.431c2.465,3.31,12.049,5.119,16.37,6.929c3.024,1.31,8.048,2.655,10.882,4.381 c5.536,3.298,10.834,7.251,16.001,10.93c2.607,1.81,10.513,5.763,10.93,9.061c-12.787-0.322-22.562,0.833-30.884,4.369 c-2.369,1.023-6.19,1.023-6.548,4c1.25,1.357,1.477,3.405,2.5,5.072c2,3.214,5.357,7.536,8.382,9.81 c3.298,2.465,6.644,5.12,10.18,7.311c6.227,3.762,13.215,5.953,19.251,9.763c3.536,2.273,7.119,5.119,10.561,7.619 c1.714,1.31,2.833,3.263,5.071,4.048v-0.356c-1.167-1.501-1.44-3.548-2.512-5.084l-4.798-4.786 c-4.738-6.12-10.364-11.497-16.691-15.954c-4.977-3.571-16.097-8.417-18.133-14.18l-0.381-0.368 c3.488-0.382,7.632-1.679,10.882-2.561c5.488-1.44,10.334-1.071,15.953-2.512c2.56-0.75,5.12-1.488,7.68-2.19v-1.488 c-2.834-2.881-4.882-6.786-8.001-9.441c-8.144-6.929-17.025-13.858-26.192-19.62c-5.06-3.215-11.334-5.298-16.691-8.001 c-1.81-0.929-4.977-1.393-6.191-2.929c-2.821-3.571-4.357-8.144-6.548-12.322c-4.655-9.063-9.015-18.274-13.072-27.621 c-2.738-6.286-4.548-12.513-7.988-18.191c-16.514-27.109-34.288-43.527-61.814-59.623c-5.857-3.441-12.882-4.739-20.322-6.513 c-4.048-0.273-8.001-0.512-12.049-0.738c-2.417-1.023-4.977-4-7.251-5.488C514.94,101.626,503.677,95.387,494.378,95.245 L494.378,95.245z M533.774,134.688c-2.208-0.022-4.411,0.226-6.56,0.738v0.369h0.369c1.25,2.607,3.536,4.286,5.119,6.512l3.571,7.68 l0.382-0.381c2.226-1.572,3.298-4.132,3.298-7.989c-0.929-0.94-1.072-2.143-1.811-3.262c-1.071-1.536-3.071-2.381-4.369-3.679 V134.688z M145.532,285.675c-3.571,0.144-7.488,0.834-11.715,2.191c-7.072,2.143-10.561,6.369-10.561,14.977v90.043h23.858v-87.852 l33.062,75.112c4.096,9.346,9.679,12.691,20.597,12.691c10.988,0,16.334-3.346,20.43-12.691l33.062-73.22v85.959h23.812v-90.043 c0-8.596-3.452-12.834-10.561-14.965c-16.93-5.357-28.323-0.75-33.431,10.834l-33.955,76.362l-32.835-76.362 c-3.715-8.691-11.156-13.453-21.764-13.024V285.675z M435.791,285.722c-9.406,0-38.658,1.119-38.658,23.812v14.691 c0,10.418,9.168,18.931,29.026,21.025c2.227,0.143,4.465,0.321,6.69,0.321c0,0,23.156-0.464,23.812-0.321 c13.394,0,11.905,10.418,11.905,11.905v11.906c0,1.631-0.369,11.905-12.048,11.905h-59.386v11.906h59.624 c7.81,0,15.394-1.632,21.43-4.465c10.048-4.607,14.191-10.834,14.191-19.025v-17.025c0-18.251-22.692-19.001-35.717-19.001H432.85 c-9.346,0-10.786-5.679-11.905-11.905v-11.906c1.119-4.738,3.215-11.167,11.489-11.905h59.944v-11.906L435.791,285.722z M527.857,285.722c-17.572,2.417-23.764,11.168-23.764,23.812v59.528c0,11.584,6.465,18.561,19.764,22.18 c4.477,1.263,8.513,1.774,12.334,1.774l26.502-0.131h15.585l13.25,11.905h26.788l-18.418-16.608 c8.655-3.571,11.346-9.06,11.346-19.347v-59.29c0-12.655-8.227-21.395-25.812-23.812L527.857,285.722z M623.34,285.734v82.828 c0,14.37,8.144,22.466,29.669,24.085c2,0.095,4.048,0.238,6.048,0.238h59.527v-11.906h-55.016c-12.274,0-16.418-5.167-16.418-12.501 v-82.744H623.34z M542.048,297.64h30.646c8.096,0,13.536,6.512,14.739,11.905c0,0,0.19,55.433,0.19,59.528s-2.274,5.953-2.274,5.953 l-6.465-5.953h-26.978l13.251,11.905h-23.109c-8.274,0-12.929-6.143-14.144-11.905V310.76 C527.905,304.427,532.75,297.64,542.048,297.64L542.048,297.64z M289.983,321.452c0.477,0.476,0,50.741,0,51.718 c0.191,10.417,13.395,19.525,34.086,19.716h37.349v0.785c0,2.238,1.631,9.68-11.906,11.12h-59.528v11.905h62.088 c10.513-0.321,33.301-2.702,33.157-20.93c0-0.321,0.096-74.314,0-74.314h-23.811v59.527c-0.369,0-29.49,0.096-35.349,0 c-11.488-0.19-12.465-6.738-12.274-9.25v-50.277H289.983z"></path> </svg> 